<?xml version="1.0" encoding="UTF-8"?>
<svg width="1787px" height="436px" viewBox="0 0 1787 436" version="1.1" xmlns="http://www.w3.org/2000/svg" xmlns:xlink="http://www.w3.org/1999/xlink">
    <title>FA</title>
    <g id="FA" stroke="none" stroke-width="1" fill="none" fill-rule="evenodd">
        <g id="Group" transform="translate(0.000000, -0.000000)">
            <g id="Future-Africa-Logo-Black">
                <g id="Group-2-Copy-3" transform="translate(497.059125, 62.655455)">
                    <g id="Future-Africa" transform="translate(-0.000000, 0.000000)">
                        <g id="path-1-link" fill="#000000" fill-rule="nonzero">
                            <path d="M105.589711,0 L105.589711,32.9110788 L103.875592,32.9110788 L82.6205208,4.11388485 L44.2242622,4.11388485 L44.2242622,58.6228591 L65.307922,58.6228591 L84.5060513,48.338147 L86.22017,48.338147 L86.22017,73.0214561 L84.5060513,73.0214561 L65.307922,62.7367439 L44.2242622,62.7367439 L44.2242622,110.560655 L60.5083897,118.274189 L60.5083897,119.988308 L6.85647475,119.988308 L6.85647475,118.274189 L20.5694243,110.560655 L20.5694243,9.42765283 L6.85647475,1.71411869 L6.85647475,0 L105.589711,0 Z M202.641478,111.589126 L213.78325,118.617013 L213.78325,119.988308 L184.643232,119.988308 L180.700759,105.589711 C174.529932,114.331716 165.445103,122.04525 151.732153,122.04525 C133.562495,122.04525 123.792019,111.93195 123.792019,94.1051159 L123.792019,42.1673197 L111.621776,35.1394331 L111.621776,33.7681381 L146.075562,33.7681381 L146.075562,92.5624091 C146.075562,104.56124 150.703682,111.589126 161.159806,111.589126 C169.387576,111.589126 175.558403,107.475241 180.357935,100.96159 L180.357935,42.1673197 L168.187693,35.1394331 L168.187693,33.7681381 L202.641478,33.7681381 L202.641478,111.589126 Z M283.409118,37.5391992 L257.525926,37.5391992 L257.525926,98.0475889 C257.525926,107.303829 260.782752,112.446185 267.467814,112.446185 C272.267347,112.446185 276.381232,109.875007 280.152293,103.532768 L283.409118,105.246887 C278.266762,115.874423 270.72464,122.04525 257.86875,122.04525 C243.127329,122.04525 235.242383,113.474657 235.242383,100.790178 L235.242383,37.5391992 L222.386493,37.5391992 L222.386493,34.1109619 L233.871088,30.8541363 L256.326043,9.94188843 L257.525926,9.94188843 L257.525926,33.7681381 L283.409118,33.7681381 L283.409118,37.5391992 Z M381.146533,111.589126 L392.288305,118.617013 L392.288305,119.988308 L363.148287,119.988308 L359.205814,105.589711 C353.034987,114.331716 343.950158,122.04525 330.237208,122.04525 C312.06755,122.04525 302.297073,111.93195 302.297073,94.1051159 L302.297073,42.1673197 L290.126831,35.1394331 L290.126831,33.7681381 L324.580616,33.7681381 L324.580616,92.5624091 C324.580616,104.56124 329.208737,111.589126 339.664861,111.589126 C347.892631,111.589126 354.063458,107.475241 358.86299,100.96159 L358.86299,42.1673197 L346.692747,35.1394331 L346.692747,33.7681381 L381.146533,33.7681381 L381.146533,111.589126 Z M462.59982,32.3968432 C466.885117,32.3968432 469.970531,32.7396669 474.598651,33.7681381 L473.741592,61.1940371 L472.370297,61.1940371 L455.743346,40.9674366 C448.886871,42.8529672 443.744515,47.6524995 439.802042,54.851798 L439.802042,111.93195 L455.22911,118.617013 L455.22911,119.988308 L406.376727,119.988308 L406.376727,118.617013 L417.518499,111.93195 L417.518499,42.1673197 L405.348256,35.1394331 L405.348256,33.7681381 L435.516745,33.7681381 L439.802042,49.1952063 C445.11581,39.2533179 452.657932,32.3968432 462.59982,32.3968432 Z M565.108446,93.4194685 L568.365271,94.9621753 C562.537268,109.703596 550.881261,122.04525 528.597718,122.04525 C503.057349,122.04525 484.544867,104.218416 484.544867,77.9924003 C484.544867,48.5095588 503.742997,31.7111957 528.76913,31.7111957 C552.766791,31.7111957 568.022447,45.4241452 568.022447,69.7646306 L568.022447,75.0783985 L508.371117,75.0783985 C508.713941,99.0760601 520.198536,111.589126 536.13984,111.589126 C550.881261,111.589126 559.280442,103.532768 565.108446,93.4194685 Z M528.940541,35.4822568 C517.455946,35.4822568 508.885353,47.1382639 508.371117,71.3073374 L545.738905,71.3073374 L545.738905,67.7076881 C545.396081,45.4241452 540.082313,35.4822568 528.940541,35.4822568 Z M113.646069,298.41111 L125.987723,306.63888 L125.987723,308.352999 L75.2498104,308.352999 L75.2498104,306.63888 L89.4769955,299.096758 L75.9354579,264.985796 L30.3399008,264.985796 L19.3695412,293.78299 L39.9389655,306.63888 L39.9389655,308.352999 L0,308.352999 L0,306.63888 L15.0842445,293.268754 L50.5665013,200.363521 L45.9383809,190.250221 L45.9383809,188.364691 L69.9360425,188.364691 L113.646069,298.41111 Z M31.8826076,260.871911 L74.3927511,260.871911 L52.7948556,206.020113 L31.8826076,260.871911 Z M176.244051,186.307748 C184.986056,186.307748 190.642648,187.164807 199.898888,188.707514 L198.699005,214.247883 L197.32771,214.247883 L181.900642,190.421633 C180.529347,190.250221 179.329464,190.078809 178.300993,190.078809 C171.61593,190.078809 167.844869,194.70693 167.844869,205.848701 L167.844869,222.132829 L194.756532,222.132829 L194.756532,225.90389 L167.844869,225.90389 L167.844869,300.296641 L183.271937,306.981704 L183.271937,308.352999 L134.419555,308.352999 L134.419555,306.981704 L145.561326,300.296641 L145.561326,225.90389 L132.362612,225.90389 L132.362612,222.132829 L145.561326,222.132829 L145.561326,215.962001 C145.561326,195.735401 157.217333,186.307748 176.244051,186.307748 Z M259.954014,220.761534 C264.239311,220.761534 267.324724,221.104357 271.952845,222.132829 L271.095785,249.558728 L269.72449,249.558728 L253.097539,229.332127 C246.241064,231.217658 241.098708,236.01719 237.156235,243.216489 L237.156235,300.296641 L252.583304,306.981704 L252.583304,308.352999 L203.730921,308.352999 L203.730921,306.981704 L214.872692,300.296641 L214.872692,230.53201 L202.70245,223.504124 L202.70245,222.132829 L232.870939,222.132829 L237.156235,237.559897 C242.470003,227.618008 250.012126,220.761534 259.954014,220.761534 Z M322.209172,196.421048 L307.639163,210.648233 L293.411978,196.421048 L307.639163,182.193863 L322.209172,196.421048 Z M319.637994,300.296641 L330.779765,306.981704 L330.779765,308.352999 L286.21268,308.352999 L286.21268,306.981704 L297.354451,300.296641 L297.354451,230.53201 L285.184208,223.504124 L285.184208,222.132829 L319.637994,222.132829 L319.637994,300.296641 Z M413.367989,254.186848 L393.998448,225.732478 C390.913034,224.532595 388.170444,223.846947 385.08503,223.846947 C374.286083,223.846947 362.630076,236.188602 362.630076,262.414618 C362.630076,287.783574 375.143142,300.296641 389.884563,300.296641 C403.940336,300.296641 411.825282,292.240283 417.13905,282.641218 L420.395875,284.183925 C415.082107,297.896875 404.28316,310.238529 382.171029,310.409941 C357.144896,310.581353 338.803826,292.754519 338.803826,265.32862 C338.803826,236.360014 358.687603,220.075886 383.885147,220.075886 C395.026919,220.075886 404.797395,221.790005 415.939167,224.189771 L414.739284,254.186848 L413.367989,254.186848 Z M505.571884,299.953817 L516.713655,306.981704 L516.713655,308.352999 L487.573637,308.352999 L483.631164,294.297225 C476.946102,304.410526 467.175625,310.409941 455.69103,310.409941 C442.663728,310.409941 427.922307,304.924761 427.922307,286.240868 C427.922307,272.013683 439.921138,264.642972 453.805499,261.386147 C464.261623,258.814969 474.717747,256.243791 483.288341,254.015436 L483.288341,240.988134 C483.288341,230.189187 479.174456,223.846947 469.575391,223.846947 C466.661389,223.846947 463.404564,224.189771 458.947855,225.732478 L437.864195,252.986965 L436.492901,252.986965 L435.293017,224.361183 C449.177379,221.618593 460.833386,220.075886 473.003629,220.075886 C495.801407,220.075886 505.571884,231.217658 505.571884,245.444843 L505.571884,299.953817 Z M465.461506,300.810876 C471.975157,300.810876 477.803161,297.211227 483.288341,289.669105 L483.288341,257.272262 C476.946102,259.157792 470.603862,261.043323 465.632918,262.757442 C455.176794,266.528503 450.377262,273.556389 450.377262,283.326866 C450.377262,294.125814 456.719501,300.810876 465.461506,300.810876 Z" id="path-1"></path>
                        </g>
                        <g id="path-1-link" fill="#2E2E2E">
                            <path d="M105.589711,0 L105.589711,32.9110788 L103.875592,32.9110788 L82.6205208,4.11388485 L44.2242622,4.11388485 L44.2242622,58.6228591 L65.307922,58.6228591 L84.5060513,48.338147 L86.22017,48.338147 L86.22017,73.0214561 L84.5060513,73.0214561 L65.307922,62.7367439 L44.2242622,62.7367439 L44.2242622,110.560655 L60.5083897,118.274189 L60.5083897,119.988308 L6.85647475,119.988308 L6.85647475,118.274189 L20.5694243,110.560655 L20.5694243,9.42765283 L6.85647475,1.71411869 L6.85647475,0 L105.589711,0 Z M202.641478,111.589126 L213.78325,118.617013 L213.78325,119.988308 L184.643232,119.988308 L180.700759,105.589711 C174.529932,114.331716 165.445103,122.04525 151.732153,122.04525 C133.562495,122.04525 123.792019,111.93195 123.792019,94.1051159 L123.792019,42.1673197 L111.621776,35.1394331 L111.621776,33.7681381 L146.075562,33.7681381 L146.075562,92.5624091 C146.075562,104.56124 150.703682,111.589126 161.159806,111.589126 C169.387576,111.589126 175.558403,107.475241 180.357935,100.96159 L180.357935,42.1673197 L168.187693,35.1394331 L168.187693,33.7681381 L202.641478,33.7681381 L202.641478,111.589126 Z M283.409118,37.5391992 L257.525926,37.5391992 L257.525926,98.0475889 C257.525926,107.303829 260.782752,112.446185 267.467814,112.446185 C272.267347,112.446185 276.381232,109.875007 280.152293,103.532768 L283.409118,105.246887 C278.266762,115.874423 270.72464,122.04525 257.86875,122.04525 C243.127329,122.04525 235.242383,113.474657 235.242383,100.790178 L235.242383,37.5391992 L222.386493,37.5391992 L222.386493,34.1109619 L233.871088,30.8541363 L256.326043,9.94188843 L257.525926,9.94188843 L257.525926,33.7681381 L283.409118,33.7681381 L283.409118,37.5391992 Z M381.146533,111.589126 L392.288305,118.617013 L392.288305,119.988308 L363.148287,119.988308 L359.205814,105.589711 C353.034987,114.331716 343.950158,122.04525 330.237208,122.04525 C312.06755,122.04525 302.297073,111.93195 302.297073,94.1051159 L302.297073,42.1673197 L290.126831,35.1394331 L290.126831,33.7681381 L324.580616,33.7681381 L324.580616,92.5624091 C324.580616,104.56124 329.208737,111.589126 339.664861,111.589126 C347.892631,111.589126 354.063458,107.475241 358.86299,100.96159 L358.86299,42.1673197 L346.692747,35.1394331 L346.692747,33.7681381 L381.146533,33.7681381 L381.146533,111.589126 Z M462.59982,32.3968432 C466.885117,32.3968432 469.970531,32.7396669 474.598651,33.7681381 L473.741592,61.1940371 L472.370297,61.1940371 L455.743346,40.9674366 C448.886871,42.8529672 443.744515,47.6524995 439.802042,54.851798 L439.802042,111.93195 L455.22911,118.617013 L455.22911,119.988308 L406.376727,119.988308 L406.376727,118.617013 L417.518499,111.93195 L417.518499,42.1673197 L405.348256,35.1394331 L405.348256,33.7681381 L435.516745,33.7681381 L439.802042,49.1952063 C445.11581,39.2533179 452.657932,32.3968432 462.59982,32.3968432 Z M565.108446,93.4194685 L568.365271,94.9621753 C562.537268,109.703596 550.881261,122.04525 528.597718,122.04525 C503.057349,122.04525 484.544867,104.218416 484.544867,77.9924003 C484.544867,48.5095588 503.742997,31.7111957 528.76913,31.7111957 C552.766791,31.7111957 568.022447,45.4241452 568.022447,69.7646306 L568.022447,75.0783985 L508.371117,75.0783985 C508.713941,99.0760601 520.198536,111.589126 536.13984,111.589126 C550.881261,111.589126 559.280442,103.532768 565.108446,93.4194685 Z M528.940541,35.4822568 C517.455946,35.4822568 508.885353,47.1382639 508.371117,71.3073374 L545.738905,71.3073374 L545.738905,67.7076881 C545.396081,45.4241452 540.082313,35.4822568 528.940541,35.4822568 Z M113.646069,298.41111 L125.987723,306.63888 L125.987723,308.352999 L75.2498104,308.352999 L75.2498104,306.63888 L89.4769955,299.096758 L75.9354579,264.985796 L30.3399008,264.985796 L19.3695412,293.78299 L39.9389655,306.63888 L39.9389655,308.352999 L0,308.352999 L0,306.63888 L15.0842445,293.268754 L50.5665013,200.363521 L45.9383809,190.250221 L45.9383809,188.364691 L69.9360425,188.364691 L113.646069,298.41111 Z M31.8826076,260.871911 L74.3927511,260.871911 L52.7948556,206.020113 L31.8826076,260.871911 Z M176.244051,186.307748 C184.986056,186.307748 190.642648,187.164807 199.898888,188.707514 L198.699005,214.247883 L197.32771,214.247883 L181.900642,190.421633 C180.529347,190.250221 179.329464,190.078809 178.300993,190.078809 C171.61593,190.078809 167.844869,194.70693 167.844869,205.848701 L167.844869,222.132829 L194.756532,222.132829 L194.756532,225.90389 L167.844869,225.90389 L167.844869,300.296641 L183.271937,306.981704 L183.271937,308.352999 L134.419555,308.352999 L134.419555,306.981704 L145.561326,300.296641 L145.561326,225.90389 L132.362612,225.90389 L132.362612,222.132829 L145.561326,222.132829 L145.561326,215.962001 C145.561326,195.735401 157.217333,186.307748 176.244051,186.307748 Z M259.954014,220.761534 C264.239311,220.761534 267.324724,221.104357 271.952845,222.132829 L271.095785,249.558728 L269.72449,249.558728 L253.097539,229.332127 C246.241064,231.217658 241.098708,236.01719 237.156235,243.216489 L237.156235,300.296641 L252.583304,306.981704 L252.583304,308.352999 L203.730921,308.352999 L203.730921,306.981704 L214.872692,300.296641 L214.872692,230.53201 L202.70245,223.504124 L202.70245,222.132829 L232.870939,222.132829 L237.156235,237.559897 C242.470003,227.618008 250.012126,220.761534 259.954014,220.761534 Z M322.209172,196.421048 L307.639163,210.648233 L293.411978,196.421048 L307.639163,182.193863 L322.209172,196.421048 Z M319.637994,300.296641 L330.779765,306.981704 L330.779765,308.352999 L286.21268,308.352999 L286.21268,306.981704 L297.354451,300.296641 L297.354451,230.53201 L285.184208,223.504124 L285.184208,222.132829 L319.637994,222.132829 L319.637994,300.296641 Z M413.367989,254.186848 L393.998448,225.732478 C390.913034,224.532595 388.170444,223.846947 385.08503,223.846947 C374.286083,223.846947 362.630076,236.188602 362.630076,262.414618 C362.630076,287.783574 375.143142,300.296641 389.884563,300.296641 C403.940336,300.296641 411.825282,292.240283 417.13905,282.641218 L420.395875,284.183925 C415.082107,297.896875 404.28316,310.238529 382.171029,310.409941 C357.144896,310.581353 338.803826,292.754519 338.803826,265.32862 C338.803826,236.360014 358.687603,220.075886 383.885147,220.075886 C395.026919,220.075886 404.797395,221.790005 415.939167,224.189771 L414.739284,254.186848 L413.367989,254.186848 Z M505.571884,299.953817 L516.713655,306.981704 L516.713655,308.352999 L487.573637,308.352999 L483.631164,294.297225 C476.946102,304.410526 467.175625,310.409941 455.69103,310.409941 C442.663728,310.409941 427.922307,304.924761 427.922307,286.240868 C427.922307,272.013683 439.921138,264.642972 453.805499,261.386147 C464.261623,258.814969 474.717747,256.243791 483.288341,254.015436 L483.288341,240.988134 C483.288341,230.189187 479.174456,223.846947 469.575391,223.846947 C466.661389,223.846947 463.404564,224.189771 458.947855,225.732478 L437.864195,252.986965 L436.492901,252.986965 L435.293017,224.361183 C449.177379,221.618593 460.833386,220.075886 473.003629,220.075886 C495.801407,220.075886 505.571884,231.217658 505.571884,245.444843 L505.571884,299.953817 Z M465.461506,300.810876 C471.975157,300.810876 477.803161,297.211227 483.288341,289.669105 L483.288341,257.272262 C476.946102,259.157792 470.603862,261.043323 465.632918,262.757442 C455.176794,266.528503 450.377262,273.556389 450.377262,283.326866 C450.377262,294.125814 456.719501,300.810876 465.461506,300.810876 Z" id="path-1"></path>
                        </g>
                    </g>
                </g>
                <g id="Group-Copy-2" fill-rule="nonzero">
                    <path d="M217.669461,344.388562 C229.261173,357.96185 235.057029,373.120243 235.057029,389.863742 C235.057029,406.607241 229.261173,421.765634 217.669461,435.338922 C206.077748,421.765634 200.281892,406.607241 200.281892,389.863742 C200.281892,373.120243 206.077748,357.96185 217.669461,344.388562 Z M307.273397,307.273397 C325.067739,308.674582 339.884631,315.294895 351.724072,327.134337 C363.563514,338.973779 370.183827,353.79067 371.585013,371.585013 C353.79067,370.183827 338.973779,363.563514 327.134337,351.724072 C315.294895,339.884631 308.674582,325.067739 307.273397,307.273397 Z M128.065525,307.273397 C126.66434,325.067739 120.044026,339.884631 108.204585,351.724072 C96.3651431,363.563514 81.5482512,370.183827 63.753909,371.585013 C65.1550942,353.79067 71.7754076,338.973779 83.6148492,327.134337 C95.4542907,315.294895 110.271183,308.674582 128.065525,307.273397 Z M389.863742,200.281892 C406.607241,200.281892 421.765634,206.077748 435.338922,217.669461 C421.765634,229.261173 406.607241,235.057029 389.863742,235.057029 C373.120243,235.057029 357.96185,229.261173 344.388562,217.669461 C357.96185,206.077748 373.120243,200.281892 389.863742,200.281892 Z M45.4751797,200.281892 C62.2186785,200.281892 77.3770717,206.077748 90.9503593,217.669461 C77.3770717,229.261173 62.2186785,235.057029 45.4751797,235.057029 C28.7316808,235.057029 13.5732876,229.261173 -7.7438056e-15,217.669461 C13.5732876,206.077748 28.7316808,200.281892 45.4751797,200.281892 Z M371.585013,63.753909 C370.183827,81.5482512 363.563514,96.3651431 351.724072,108.204585 C339.884631,120.044026 325.067739,126.66434 307.273397,128.065525 C308.674582,110.271183 315.294895,95.4542907 327.134337,83.6148492 C338.973779,71.7754076 353.79067,65.1550942 371.585013,63.753909 Z M63.753909,63.753909 C81.5482512,65.1550942 96.3651431,71.7754076 108.204585,83.6148492 C120.044026,95.4542907 126.66434,110.271183 128.065525,128.065525 C110.271183,126.66434 95.4542907,120.044026 83.6148492,108.204585 C71.7754076,96.3651431 65.1550942,81.5482512 63.753909,63.753909 Z M217.669461,-9.46465128e-15 C229.261173,13.5732876 235.057029,28.7316808 235.057029,45.4751797 C235.057029,62.2186785 229.261173,77.3770717 217.669461,90.9503593 C206.077748,77.3770717 200.281892,62.2186785 200.281892,45.4751797 C200.281892,28.7316808 206.077748,13.5732876 217.669461,-9.46465128e-15 Z" id="Combined-Shape" fill="#3CAC70"></path>
                    <path d="M217.669462,106.390377 C279.127202,106.390377 328.948545,156.21172 328.948545,217.669461 C328.948545,279.127201 279.127202,328.948544 217.669462,328.948544 C156.211721,328.948544 106.390378,279.127201 106.390378,217.669461 C106.390378,156.21172 156.211721,106.390377 217.669462,106.390377 Z M217.669462,128.082421 C168.191906,128.082421 128.082422,168.191905 128.082422,217.669461 C128.082422,267.147017 168.191906,307.256501 217.669462,307.256501 C267.147018,307.256501 307.256502,267.147017 307.256502,217.669461 C307.256502,168.191905 267.147018,128.082421 217.669462,128.082421 Z M217.669462,147.576972 C256.638118,147.576972 288.228456,179.167309 288.228456,218.135966 C288.228456,253.187468 262.669879,282.269444 229.172673,287.761948 L229.173032,268.872546 C252.363595,263.63687 269.682483,242.90894 269.682483,218.135966 C269.682483,189.409968 246.39546,166.122945 217.669462,166.122945 C188.943464,166.122945 165.656441,189.409968 165.656441,218.135966 C165.656441,242.90894 182.975329,263.63687 206.165891,268.872546 L206.166251,287.761948 C172.669044,282.269444 147.110468,253.187468 147.110468,218.135966 C147.110468,179.167309 178.700805,147.576972 217.669462,147.576972 Z M217.669462,184.45104 C236.015489,184.45104 250.887882,199.323434 250.887882,217.669461 C250.887882,236.015488 236.015489,250.887881 217.669462,250.887881 C199.323435,250.887881 184.451041,236.015488 184.451041,217.669461 C184.451041,199.323434 199.323435,184.45104 217.669462,184.45104 Z" id="Combined-Shape" fill="#FBBB07" transform="translate(217.669461, 217.669460) scale(-1, 1) translate(-217.669461, -217.669460) "></path>
                </g>
            </g>
            <g id="Group-Copy" transform="translate(496.230000, 61.261078)"></g>
        </g>
    </g>
</svg>